<svg width="34" height="34" viewBox="0 0 34 34" fill="none" xmlns="http://www.w3.org/2000/svg">
<circle cx="17" cy="17" r="17" fill="#10D5C2"/>
<path fill-rule="evenodd" clip-rule="evenodd" d="M22 13.558V21.442C21.9998 21.6433 22.0604 21.84 22.1738 22.0063C22.2872 22.1726 22.4481 22.3008 22.6356 22.3742C22.823 22.4475 23.0282 22.4626 23.2244 22.4174C23.4205 22.3723 23.5985 22.269 23.735 22.121L27.374 18.178C27.5443 17.9933 27.6389 17.7513 27.6389 17.5C27.6389 17.2487 27.5443 17.0067 27.374 16.822L23.734 12.879C23.5974 12.7314 23.4196 12.6284 23.2236 12.5835C23.0276 12.5385 22.8226 12.5537 22.6354 12.627C22.4481 12.7003 22.2874 12.8284 22.174 12.9945C22.0607 13.1605 22 13.3569 22 13.558ZM12 13.558V21.442C12.0002 21.6433 11.9396 21.84 11.8262 22.0063C11.7128 22.1726 11.5519 22.3008 11.3644 22.3742C11.177 22.4475 10.9718 22.4626 10.7756 22.4174C10.5794 22.3723 10.4015 22.269 10.265 22.121L6.62599 18.178C6.45564 17.9933 6.36105 17.7513 6.36105 17.5C6.36105 17.2487 6.45564 17.0067 6.62599 16.822L10.266 12.879C10.4026 12.7314 10.5804 12.6284 10.7764 12.5835C10.9724 12.5385 11.1774 12.5537 11.3646 12.627C11.5518 12.7003 11.7126 12.8284 11.826 12.9945C11.9393 13.1605 12 13.3569 12 13.558Z" fill="#80FFF3"/>
</svg>
